<?xml version="1.0" encoding="UTF-8" standalone="no"?>
<!DOCTYPE svg PUBLIC "-//W3C//DTD SVG 1.1//EN"
 "http://www.w3.org/Graphics/SVG/1.1/DTD/svg11.dtd">
<!-- Generated by graphviz version 2.47.0 (20210316.0004)
 -->
<!-- Title: dependencies Pages: 1 -->
<svg width="5603pt" height="284pt"
 viewBox="0.00 0.00 5603.00 284.00" xmlns="http://www.w3.org/2000/svg" xmlns:xlink="http://www.w3.org/1999/xlink">
<g id="graph0" class="graph" transform="scale(1 1) rotate(0) translate(4 280)">
<title>dependencies</title>
<polygon fill="white" stroke="transparent" points="-4,4 -4,-280 5599,-280 5599,4 -4,4"/>
<text text-anchor="start" x="2776.51" y="-42.4" font-family="Times-12" font-weight="bold" font-size="14.00">Legend</text>
<polygon fill="#ffffb3" stroke="transparent" points="2563.5,-10 2563.5,-30 2583.5,-30 2583.5,-10 2563.5,-10"/>
<text text-anchor="start" x="2587.13" y="-15.4" font-family="Times-12" font-size="14.00"> &#160;Declarations</text>
<polygon fill="#8dd3c7" stroke="transparent" points="2676.5,-10 2676.5,-30 2696.5,-30 2696.5,-10 2676.5,-10"/>
<text text-anchor="start" x="2700.23" y="-15.4" font-family="Times-12" font-size="14.00"> &#160;Module</text>
<polygon fill="#80b1d3" stroke="transparent" points="2762.5,-10 2762.5,-30 2782.5,-30 2782.5,-10 2762.5,-10"/>
<text text-anchor="start" x="2786.28" y="-15.4" font-family="Times-12" font-size="14.00"> &#160;Bootstrap</text>
<polygon fill="#fdb462" stroke="transparent" points="2859.5,-10 2859.5,-30 2879.5,-30 2879.5,-10 2859.5,-10"/>
<text text-anchor="start" x="2883.17" y="-15.4" font-family="Times-12" font-size="14.00"> &#160;Providers</text>
<polygon fill="#fb8072" stroke="transparent" points="2955.5,-10 2955.5,-30 2975.5,-30 2975.5,-10 2955.5,-10"/>
<text text-anchor="start" x="2979.23" y="-15.4" font-family="Times-12" font-size="14.00"> &#160;Exports</text>
<g id="clust1" class="cluster">
<title>cluster_AppModule</title>
<polygon fill="none" stroke="black" stroke-dasharray="1,5" points="8,-70 8,-268 5587,-268 5587,-70 8,-70"/>
</g>
<g id="clust2" class="cluster">
<title>cluster_AppModule_declarations</title>
<polygon fill="none" stroke="black" points="168,-78 168,-130 5579,-130 5579,-78 168,-78"/>
</g>
<g id="clust36" class="cluster">
<title>cluster_AppModule_imports</title>
<polygon fill="none" stroke="black" points="16,-78 16,-130 160,-130 160,-78 16,-78"/>
</g>
<g id="clust38" class="cluster">
<title>cluster_AppModule_bootstrap</title>
<polygon fill="none" stroke="black" points="2540,-208 2540,-260 2664,-260 2664,-208 2540,-208"/>
</g>
<!-- AcquistaComponent -->
<g id="node1" class="node">
<title>AcquistaComponent</title>
<polygon fill="#ffffb3" stroke="black" points="5570.59,-122 5439.41,-122 5439.41,-86 5570.59,-86 5570.59,-122"/>
<text text-anchor="middle" x="5505" y="-99.8" font-family="Times,serif" font-size="14.00">AcquistaComponent</text>
</g>
<!-- AppModule -->
<g id="node34" class="node">
<title>AppModule</title>
<polygon fill="#8dd3c7" stroke="black" points="2643.66,-187 2640.66,-191 2619.66,-191 2616.66,-187 2560.34,-187 2560.34,-151 2643.66,-151 2643.66,-187"/>
<text text-anchor="middle" x="2602" y="-164.8" font-family="Times,serif" font-size="14.00">AppModule</text>
</g>
<!-- AcquistaComponent&#45;&gt;AppModule -->
<g id="edge1" class="edge">
<title>AcquistaComponent&#45;&gt;AppModule</title>
<path fill="none" stroke="black" d="M5505,-122.38C5505,-146.28 5505,-185 5505,-185 5505,-185 2653.88,-185 2653.88,-185"/>
<polygon fill="black" stroke="black" points="2653.88,-181.5 2643.88,-185 2653.88,-188.5 2653.88,-181.5"/>
</g>
<!-- AggiungiprodottoComponent -->
<g id="node2" class="node">
<title>AggiungiprodottoComponent</title>
<polygon fill="#ffffb3" stroke="black" points="5421.66,-122 5240.34,-122 5240.34,-86 5421.66,-86 5421.66,-122"/>
<text text-anchor="middle" x="5331" y="-99.8" font-family="Times,serif" font-size="14.00">AggiungiprodottoComponent</text>
</g>
<!-- AggiungiprodottoComponent&#45;&gt;AppModule -->
<g id="edge2" class="edge">
<title>AggiungiprodottoComponent&#45;&gt;AppModule</title>
<path fill="none" stroke="black" d="M5331,-122.32C5331,-145.66 5331,-183 5331,-183 5331,-183 2653.77,-183 2653.77,-183"/>
<polygon fill="black" stroke="black" points="2653.77,-179.5 2643.77,-183 2653.77,-186.5 2653.77,-179.5"/>
</g>
<!-- AggiungiquantitaComponent -->
<g id="node3" class="node">
<title>AggiungiquantitaComponent</title>
<polygon fill="#ffffb3" stroke="black" points="5222.82,-122 5043.18,-122 5043.18,-86 5222.82,-86 5222.82,-122"/>
<text text-anchor="middle" x="5133" y="-99.8" font-family="Times,serif" font-size="14.00">AggiungiquantitaComponent</text>
</g>
<!-- AggiungiquantitaComponent&#45;&gt;AppModule -->
<g id="edge3" class="edge">
<title>AggiungiquantitaComponent&#45;&gt;AppModule</title>
<path fill="none" stroke="black" d="M5133,-122.25C5133,-145.02 5133,-181 5133,-181 5133,-181 2653.82,-181 2653.82,-181"/>
<polygon fill="black" stroke="black" points="2653.82,-177.5 2643.82,-181 2653.82,-184.5 2653.82,-177.5"/>
</g>
<!-- AllordiniComponent -->
<g id="node4" class="node">
<title>AllordiniComponent</title>
<polygon fill="#ffffb3" stroke="black" points="5025.16,-122 4892.84,-122 4892.84,-86 5025.16,-86 5025.16,-122"/>
<text text-anchor="middle" x="4959" y="-99.8" font-family="Times,serif" font-size="14.00">AllordiniComponent</text>
</g>
<!-- AllordiniComponent&#45;&gt;AppModule -->
<g id="edge4" class="edge">
<title>AllordiniComponent&#45;&gt;AppModule</title>
<path fill="none" stroke="black" d="M4959,-122.16C4959,-144.35 4959,-179 4959,-179 4959,-179 2653.66,-179 2653.66,-179"/>
<polygon fill="black" stroke="black" points="2653.66,-175.5 2643.66,-179 2653.66,-182.5 2653.66,-175.5"/>
</g>
<!-- AllreclamiComponent -->
<g id="node5" class="node">
<title>AllreclamiComponent</title>
<polygon fill="#ffffb3" stroke="black" points="4874.7,-122 4733.3,-122 4733.3,-86 4874.7,-86 4874.7,-122"/>
<text text-anchor="middle" x="4804" y="-99.8" font-family="Times,serif" font-size="14.00">AllreclamiComponent</text>
</g>
<!-- AllreclamiComponent&#45;&gt;AppModule -->
<g id="edge5" class="edge">
<title>AllreclamiComponent&#45;&gt;AppModule</title>
<path fill="none" stroke="black" d="M4804,-122.04C4804,-143.66 4804,-177 4804,-177 4804,-177 2654.02,-177 2654.02,-177"/>
<polygon fill="black" stroke="black" points="2654.02,-173.5 2644.02,-177 2654.02,-180.5 2654.02,-173.5"/>
</g>
<!-- AppComponent -->
<g id="node6" class="node">
<title>AppComponent</title>
<polygon fill="#ffffb3" stroke="black" points="4715.94,-122 4610.06,-122 4610.06,-86 4715.94,-86 4715.94,-122"/>
<text text-anchor="middle" x="4663" y="-99.8" font-family="Times,serif" font-size="14.00">AppComponent</text>
</g>
<!-- AppComponent&#45;&gt;AppModule -->
<g id="edge6" class="edge">
<title>AppComponent&#45;&gt;AppModule</title>
<path fill="none" stroke="black" d="M4663,-122.28C4663,-143.32 4663,-175 4663,-175 4663,-175 2654.1,-175 2654.1,-175"/>
<polygon fill="black" stroke="black" points="2654.1,-171.5 2644.1,-175 2654.1,-178.5 2654.1,-171.5"/>
</g>
<!-- BarraComponent -->
<g id="node7" class="node">
<title>BarraComponent</title>
<polygon fill="#ffffb3" stroke="black" points="4592.42,-122 4479.58,-122 4479.58,-86 4592.42,-86 4592.42,-122"/>
<text text-anchor="middle" x="4536" y="-99.8" font-family="Times,serif" font-size="14.00">BarraComponent</text>
</g>
<!-- BarraComponent&#45;&gt;AppModule -->
<g id="edge7" class="edge">
<title>BarraComponent&#45;&gt;AppModule</title>
<path fill="none" stroke="black" d="M4536,-122.13C4536,-142.57 4536,-173 4536,-173 4536,-173 2653.74,-173 2653.74,-173"/>
<polygon fill="black" stroke="black" points="2653.74,-169.5 2643.74,-173 2653.74,-176.5 2653.74,-169.5"/>
</g>
<!-- CarrelloComponent -->
<g id="node8" class="node">
<title>CarrelloComponent</title>
<polygon fill="#ffffb3" stroke="black" points="4461.7,-122 4334.3,-122 4334.3,-86 4461.7,-86 4461.7,-122"/>
<text text-anchor="middle" x="4398" y="-99.8" font-family="Times,serif" font-size="14.00">CarrelloComponent</text>
</g>
<!-- CarrelloComponent&#45;&gt;AppModule -->
<g id="edge8" class="edge">
<title>CarrelloComponent&#45;&gt;AppModule</title>
<path fill="none" stroke="black" d="M4398,-122.31C4398,-142.15 4398,-171 4398,-171 4398,-171 2653.75,-171 2653.75,-171"/>
<polygon fill="black" stroke="black" points="2653.75,-167.5 2643.75,-171 2653.75,-174.5 2653.75,-167.5"/>
</g>
<!-- CercabrcodeComponent -->
<g id="node9" class="node">
<title>CercabrcodeComponent</title>
<polygon fill="#ffffb3" stroke="black" points="4316.06,-122 4163.94,-122 4163.94,-86 4316.06,-86 4316.06,-122"/>
<text text-anchor="middle" x="4240" y="-99.8" font-family="Times,serif" font-size="14.00">CercabrcodeComponent</text>
</g>
<!-- CercabrcodeComponent&#45;&gt;AppModule -->
<g id="edge9" class="edge">
<title>CercabrcodeComponent&#45;&gt;AppModule</title>
<path fill="none" stroke="black" d="M4240,-122.11C4240,-141.34 4240,-169 4240,-169 4240,-169 2653.72,-169 2653.72,-169"/>
<polygon fill="black" stroke="black" points="2653.72,-165.5 2643.72,-169 2653.72,-172.5 2653.72,-165.5"/>
</g>
<!-- CercanomeComponent -->
<g id="node10" class="node">
<title>CercanomeComponent</title>
<polygon fill="#ffffb3" stroke="black" points="4145.58,-122 4000.42,-122 4000.42,-86 4145.58,-86 4145.58,-122"/>
<text text-anchor="middle" x="4073" y="-99.8" font-family="Times,serif" font-size="14.00">CercanomeComponent</text>
</g>
<!-- CercanomeComponent&#45;&gt;AppModule -->
<g id="edge10" class="edge">
<title>CercanomeComponent&#45;&gt;AppModule</title>
<path fill="none" stroke="black" d="M4073,-122.22C4073,-140.83 4073,-167 4073,-167 4073,-167 2654.05,-167 2654.05,-167"/>
<polygon fill="black" stroke="black" points="2654.05,-163.5 2644.05,-167 2654.05,-170.5 2654.05,-163.5"/>
</g>
<!-- CofereclamoComponent -->
<g id="node11" class="node">
<title>CofereclamoComponent</title>
<polygon fill="#ffffb3" stroke="black" points="3982.63,-122 3829.37,-122 3829.37,-86 3982.63,-86 3982.63,-122"/>
<text text-anchor="middle" x="3906" y="-99.8" font-family="Times,serif" font-size="14.00">CofereclamoComponent</text>
</g>
<!-- CofereclamoComponent&#45;&gt;AppModule -->
<g id="edge11" class="edge">
<title>CofereclamoComponent&#45;&gt;AppModule</title>
<path fill="none" stroke="black" d="M3906,-122.3C3906,-140.27 3906,-165 3906,-165 3906,-165 2653.91,-165 2653.91,-165"/>
<polygon fill="black" stroke="black" points="2653.91,-161.5 2643.91,-165 2653.91,-168.5 2653.91,-161.5"/>
</g>
<!-- CofermaresoComponent -->
<g id="node12" class="node">
<title>CofermaresoComponent</title>
<polygon fill="#ffffb3" stroke="black" points="3810.63,-122 3657.37,-122 3657.37,-86 3810.63,-86 3810.63,-122"/>
<text text-anchor="middle" x="3734" y="-99.8" font-family="Times,serif" font-size="14.00">CofermaresoComponent</text>
</g>
<!-- CofermaresoComponent&#45;&gt;AppModule -->
<g id="edge12" class="edge">
<title>CofermaresoComponent&#45;&gt;AppModule</title>
<path fill="none" stroke="black" d="M3734,-122.02C3734,-139.37 3734,-163 3734,-163 3734,-163 2653.97,-163 2653.97,-163"/>
<polygon fill="black" stroke="black" points="2653.97,-159.5 2643.97,-163 2653.97,-166.5 2653.97,-159.5"/>
</g>
<!-- ConfermacontattoComponent -->
<g id="node13" class="node">
<title>ConfermacontattoComponent</title>
<polygon fill="#ffffb3" stroke="black" points="3639.41,-122 3456.59,-122 3456.59,-86 3639.41,-86 3639.41,-122"/>
<text text-anchor="middle" x="3548" y="-99.8" font-family="Times,serif" font-size="14.00">ConfermacontattoComponent</text>
</g>
<!-- ConfermacontattoComponent&#45;&gt;AppModule -->
<g id="edge13" class="edge">
<title>ConfermacontattoComponent&#45;&gt;AppModule</title>
<path fill="none" stroke="black" d="M3548,-122.04C3548,-138.73 3548,-161 3548,-161 3548,-161 2653.87,-161 2653.87,-161"/>
<polygon fill="black" stroke="black" points="2653.87,-157.5 2643.87,-161 2653.87,-164.5 2653.87,-157.5"/>
</g>
<!-- ConfermaordineComponent -->
<g id="node14" class="node">
<title>ConfermaordineComponent</title>
<polygon fill="#ffffb3" stroke="black" points="3438.58,-122 3265.42,-122 3265.42,-86 3438.58,-86 3438.58,-122"/>
<text text-anchor="middle" x="3352" y="-99.8" font-family="Times,serif" font-size="14.00">ConfermaordineComponent</text>
</g>
<!-- ConfermaordineComponent&#45;&gt;AppModule -->
<g id="edge14" class="edge">
<title>ConfermaordineComponent&#45;&gt;AppModule</title>
<path fill="none" stroke="black" d="M3352,-122.01C3352,-138.05 3352,-159 3352,-159 3352,-159 2653.66,-159 2653.66,-159"/>
<polygon fill="black" stroke="black" points="2653.66,-155.5 2643.66,-159 2653.66,-162.5 2653.66,-155.5"/>
</g>
<!-- ConfermaprodottoComponent -->
<g id="node15" class="node">
<title>ConfermaprodottoComponent</title>
<polygon fill="#ffffb3" stroke="black" points="3247.25,-122 3062.75,-122 3062.75,-86 3247.25,-86 3247.25,-122"/>
<text text-anchor="middle" x="3155" y="-99.8" font-family="Times,serif" font-size="14.00">ConfermaprodottoComponent</text>
</g>
<!-- ConfermaprodottoComponent&#45;&gt;AppModule -->
<g id="edge15" class="edge">
<title>ConfermaprodottoComponent&#45;&gt;AppModule</title>
<path fill="none" stroke="black" d="M3155,-122.24C3155,-137.57 3155,-157 3155,-157 3155,-157 2654.02,-157 2654.02,-157"/>
<polygon fill="black" stroke="black" points="2654.02,-153.5 2644.02,-157 2654.02,-160.5 2654.02,-153.5"/>
</g>
<!-- ConfermareclamoComponent -->
<g id="node16" class="node">
<title>ConfermareclamoComponent</title>
<polygon fill="#ffffb3" stroke="black" points="3044.4,-122 2861.6,-122 2861.6,-86 3044.4,-86 3044.4,-122"/>
<text text-anchor="middle" x="2953" y="-99.8" font-family="Times,serif" font-size="14.00">ConfermareclamoComponent</text>
</g>
<!-- ConfermareclamoComponent&#45;&gt;AppModule -->
<g id="edge16" class="edge">
<title>ConfermareclamoComponent&#45;&gt;AppModule</title>
<path fill="none" stroke="black" d="M2953,-122.12C2953,-136.78 2953,-155 2953,-155 2953,-155 2653.99,-155 2653.99,-155"/>
<polygon fill="black" stroke="black" points="2653.99,-151.5 2643.99,-155 2653.99,-158.5 2653.99,-151.5"/>
</g>
<!-- ContattiComponent -->
<g id="node17" class="node">
<title>ContattiComponent</title>
<polygon fill="#ffffb3" stroke="black" points="2844.45,-122 2717.55,-122 2717.55,-86 2844.45,-86 2844.45,-122"/>
<text text-anchor="middle" x="2781" y="-99.8" font-family="Times,serif" font-size="14.00">ContattiComponent</text>
</g>
<!-- ContattiComponent&#45;&gt;AppModule -->
<g id="edge17" class="edge">
<title>ContattiComponent&#45;&gt;AppModule</title>
<path fill="none" stroke="black" d="M2781,-122.25C2781,-136.18 2781,-153 2781,-153 2781,-153 2653.97,-153 2653.97,-153"/>
<polygon fill="black" stroke="black" points="2653.97,-149.5 2643.97,-153 2653.97,-156.5 2653.97,-149.5"/>
</g>
<!-- CreanuovaTipologiaComponent -->
<g id="node18" class="node">
<title>CreanuovaTipologiaComponent</title>
<polygon fill="#ffffb3" stroke="black" points="2700.41,-122 2503.59,-122 2503.59,-86 2700.41,-86 2700.41,-122"/>
<text text-anchor="middle" x="2602" y="-99.8" font-family="Times,serif" font-size="14.00">CreanuovaTipologiaComponent</text>
</g>
<!-- CreanuovaTipologiaComponent&#45;&gt;AppModule -->
<g id="edge18" class="edge">
<title>CreanuovaTipologiaComponent&#45;&gt;AppModule</title>
<path fill="none" stroke="black" d="M2602,-122.11C2602,-122.11 2602,-140.99 2602,-140.99"/>
<polygon fill="black" stroke="black" points="2598.5,-140.99 2602,-150.99 2605.5,-140.99 2598.5,-140.99"/>
</g>
<!-- DettagliComponent -->
<g id="node19" class="node">
<title>DettagliComponent</title>
<polygon fill="#ffffb3" stroke="black" points="2486.43,-122 2359.57,-122 2359.57,-86 2486.43,-86 2486.43,-122"/>
<text text-anchor="middle" x="2423" y="-99.8" font-family="Times,serif" font-size="14.00">DettagliComponent</text>
</g>
<!-- DettagliComponent&#45;&gt;AppModule -->
<g id="edge19" class="edge">
<title>DettagliComponent&#45;&gt;AppModule</title>
<path fill="none" stroke="black" d="M2423,-122.25C2423,-136.18 2423,-153 2423,-153 2423,-153 2550.03,-153 2550.03,-153"/>
<polygon fill="black" stroke="black" points="2550.03,-156.5 2560.03,-153 2550.03,-149.5 2550.03,-156.5"/>
</g>
<!-- ErroreComponent -->
<g id="node20" class="node">
<title>ErroreComponent</title>
<polygon fill="#ffffb3" stroke="black" points="2341.58,-122 2224.42,-122 2224.42,-86 2341.58,-86 2341.58,-122"/>
<text text-anchor="middle" x="2283" y="-99.8" font-family="Times,serif" font-size="14.00">ErroreComponent</text>
</g>
<!-- ErroreComponent&#45;&gt;AppModule -->
<g id="edge20" class="edge">
<title>ErroreComponent&#45;&gt;AppModule</title>
<path fill="none" stroke="black" d="M2283,-122.12C2283,-136.78 2283,-155 2283,-155 2283,-155 2550.3,-155 2550.3,-155"/>
<polygon fill="black" stroke="black" points="2550.3,-158.5 2560.3,-155 2550.3,-151.5 2550.3,-158.5"/>
</g>
<!-- ErroreclamoComponent -->
<g id="node21" class="node">
<title>ErroreclamoComponent</title>
<polygon fill="#ffffb3" stroke="black" points="2206.79,-122 2055.21,-122 2055.21,-86 2206.79,-86 2206.79,-122"/>
<text text-anchor="middle" x="2131" y="-99.8" font-family="Times,serif" font-size="14.00">ErroreclamoComponent</text>
</g>
<!-- ErroreclamoComponent&#45;&gt;AppModule -->
<g id="edge21" class="edge">
<title>ErroreclamoComponent&#45;&gt;AppModule</title>
<path fill="none" stroke="black" d="M2131,-122.24C2131,-137.57 2131,-157 2131,-157 2131,-157 2550.2,-157 2550.2,-157"/>
<polygon fill="black" stroke="black" points="2550.2,-160.5 2560.2,-157 2550.2,-153.5 2550.2,-160.5"/>
</g>
<!-- ErroreresoComponent -->
<g id="node22" class="node">
<title>ErroreresoComponent</title>
<polygon fill="#ffffb3" stroke="black" points="2037.4,-122 1896.6,-122 1896.6,-86 2037.4,-86 2037.4,-122"/>
<text text-anchor="middle" x="1967" y="-99.8" font-family="Times,serif" font-size="14.00">ErroreresoComponent</text>
</g>
<!-- ErroreresoComponent&#45;&gt;AppModule -->
<g id="edge22" class="edge">
<title>ErroreresoComponent&#45;&gt;AppModule</title>
<path fill="none" stroke="black" d="M1967,-122.01C1967,-138.05 1967,-159 1967,-159 1967,-159 2550.34,-159 2550.34,-159"/>
<polygon fill="black" stroke="black" points="2550.34,-162.5 2560.34,-159 2550.34,-155.5 2550.34,-162.5"/>
</g>
<!-- HomeComponent -->
<g id="node23" class="node">
<title>HomeComponent</title>
<polygon fill="#ffffb3" stroke="black" points="1878.55,-122 1763.45,-122 1763.45,-86 1878.55,-86 1878.55,-122"/>
<text text-anchor="middle" x="1821" y="-99.8" font-family="Times,serif" font-size="14.00">HomeComponent</text>
</g>
<!-- HomeComponent&#45;&gt;AppModule -->
<g id="edge23" class="edge">
<title>HomeComponent&#45;&gt;AppModule</title>
<path fill="none" stroke="black" d="M1821,-122.04C1821,-138.73 1821,-161 1821,-161 1821,-161 2550.29,-161 2550.29,-161"/>
<polygon fill="black" stroke="black" points="2550.29,-164.5 2560.29,-161 2550.29,-157.5 2550.29,-164.5"/>
</g>
<!-- InfoComponent -->
<g id="node24" class="node">
<title>InfoComponent</title>
<polygon fill="#ffffb3" stroke="black" points="1745.15,-122 1640.85,-122 1640.85,-86 1745.15,-86 1745.15,-122"/>
<text text-anchor="middle" x="1693" y="-99.8" font-family="Times,serif" font-size="14.00">InfoComponent</text>
</g>
<!-- InfoComponent&#45;&gt;AppModule -->
<g id="edge24" class="edge">
<title>InfoComponent&#45;&gt;AppModule</title>
<path fill="none" stroke="black" d="M1693,-122.02C1693,-139.37 1693,-163 1693,-163 1693,-163 2550.28,-163 2550.28,-163"/>
<polygon fill="black" stroke="black" points="2550.28,-166.5 2560.28,-163 2550.28,-159.5 2550.28,-166.5"/>
</g>
<!-- LoginComponent -->
<g id="node25" class="node">
<title>LoginComponent</title>
<polygon fill="#ffffb3" stroke="black" points="1622.28,-122 1507.72,-122 1507.72,-86 1622.28,-86 1622.28,-122"/>
<text text-anchor="middle" x="1565" y="-99.8" font-family="Times,serif" font-size="14.00">LoginComponent</text>
</g>
<!-- LoginComponent&#45;&gt;AppModule -->
<g id="edge25" class="edge">
<title>LoginComponent&#45;&gt;AppModule</title>
<path fill="none" stroke="black" d="M1565,-122.3C1565,-140.27 1565,-165 1565,-165 1565,-165 2550.06,-165 2550.06,-165"/>
<polygon fill="black" stroke="black" points="2550.06,-168.5 2560.06,-165 2550.06,-161.5 2550.06,-168.5"/>
</g>
<!-- LoginDialogComponent -->
<g id="node26" class="node">
<title>LoginDialogComponent</title>
<polygon fill="#ffffb3" stroke="black" points="1489.38,-122 1336.62,-122 1336.62,-86 1489.38,-86 1489.38,-122"/>
<text text-anchor="middle" x="1413" y="-99.8" font-family="Times,serif" font-size="14.00">LoginDialogComponent</text>
</g>
<!-- LoginDialogComponent&#45;&gt;AppModule -->
<g id="edge26" class="edge">
<title>LoginDialogComponent&#45;&gt;AppModule</title>
<path fill="none" stroke="black" d="M1413,-122.22C1413,-140.83 1413,-167 1413,-167 1413,-167 2550.03,-167 2550.03,-167"/>
<polygon fill="black" stroke="black" points="2550.03,-170.5 2560.03,-167 2550.03,-163.5 2550.03,-170.5"/>
</g>
<!-- OrdiniComponent -->
<g id="node27" class="node">
<title>OrdiniComponent</title>
<polygon fill="#ffffb3" stroke="black" points="1318.88,-122 1201.12,-122 1201.12,-86 1318.88,-86 1318.88,-122"/>
<text text-anchor="middle" x="1260" y="-99.8" font-family="Times,serif" font-size="14.00">OrdiniComponent</text>
</g>
<!-- OrdiniComponent&#45;&gt;AppModule -->
<g id="edge27" class="edge">
<title>OrdiniComponent&#45;&gt;AppModule</title>
<path fill="none" stroke="black" d="M1260,-122.11C1260,-141.34 1260,-169 1260,-169 1260,-169 2549.99,-169 2549.99,-169"/>
<polygon fill="black" stroke="black" points="2549.99,-172.5 2559.99,-169 2549.99,-165.5 2549.99,-172.5"/>
</g>
<!-- ReclamoComponent -->
<g id="node28" class="node">
<title>ReclamoComponent</title>
<polygon fill="#ffffb3" stroke="black" points="1183.59,-122 1052.41,-122 1052.41,-86 1183.59,-86 1183.59,-122"/>
<text text-anchor="middle" x="1118" y="-99.8" font-family="Times,serif" font-size="14.00">ReclamoComponent</text>
</g>
<!-- ReclamoComponent&#45;&gt;AppModule -->
<g id="edge28" class="edge">
<title>ReclamoComponent&#45;&gt;AppModule</title>
<path fill="none" stroke="black" d="M1118,-122.31C1118,-142.15 1118,-171 1118,-171 1118,-171 2549.98,-171 2549.98,-171"/>
<polygon fill="black" stroke="black" points="2549.98,-174.5 2559.98,-171 2549.98,-167.5 2549.98,-174.5"/>
</g>
<!-- RegistrazioneComponent -->
<g id="node29" class="node">
<title>RegistrazioneComponent</title>
<polygon fill="#ffffb3" stroke="black" points="1034.3,-122 875.7,-122 875.7,-86 1034.3,-86 1034.3,-122"/>
<text text-anchor="middle" x="955" y="-99.8" font-family="Times,serif" font-size="14.00">RegistrazioneComponent</text>
</g>
<!-- RegistrazioneComponent&#45;&gt;AppModule -->
<g id="edge29" class="edge">
<title>RegistrazioneComponent&#45;&gt;AppModule</title>
<path fill="none" stroke="black" d="M955,-122.13C955,-142.57 955,-173 955,-173 955,-173 2550.05,-173 2550.05,-173"/>
<polygon fill="black" stroke="black" points="2550.05,-176.5 2560.05,-173 2550.05,-169.5 2550.05,-176.5"/>
</g>
<!-- ResiComponent -->
<g id="node30" class="node">
<title>ResiComponent</title>
<polygon fill="#ffffb3" stroke="black" points="858.22,-122 751.78,-122 751.78,-86 858.22,-86 858.22,-122"/>
<text text-anchor="middle" x="805" y="-99.8" font-family="Times,serif" font-size="14.00">ResiComponent</text>
</g>
<!-- ResiComponent&#45;&gt;AppModule -->
<g id="edge30" class="edge">
<title>ResiComponent&#45;&gt;AppModule</title>
<path fill="none" stroke="black" d="M805,-122.28C805,-143.32 805,-175 805,-175 805,-175 2550.23,-175 2550.23,-175"/>
<polygon fill="black" stroke="black" points="2550.23,-178.5 2560.23,-175 2550.23,-171.5 2550.23,-178.5"/>
</g>
<!-- ShowimmaginedialogComponent -->
<g id="node31" class="node">
<title>ShowimmaginedialogComponent</title>
<polygon fill="#ffffb3" stroke="black" points="734.21,-122 529.79,-122 529.79,-86 734.21,-86 734.21,-122"/>
<text text-anchor="middle" x="632" y="-99.8" font-family="Times,serif" font-size="14.00">ShowimmaginedialogComponent</text>
</g>
<!-- ShowimmaginedialogComponent&#45;&gt;AppModule -->
<g id="edge31" class="edge">
<title>ShowimmaginedialogComponent&#45;&gt;AppModule</title>
<path fill="none" stroke="black" d="M632,-122.04C632,-143.66 632,-177 632,-177 632,-177 2549.94,-177 2549.94,-177"/>
<polygon fill="black" stroke="black" points="2549.94,-180.5 2559.94,-177 2549.94,-173.5 2549.94,-180.5"/>
</g>
<!-- VediprodottoComponent -->
<g id="node32" class="node">
<title>VediprodottoComponent</title>
<polygon fill="#ffffb3" stroke="black" points="511.99,-122 356.01,-122 356.01,-86 511.99,-86 511.99,-122"/>
<text text-anchor="middle" x="434" y="-99.8" font-family="Times,serif" font-size="14.00">VediprodottoComponent</text>
</g>
<!-- VediprodottoComponent&#45;&gt;AppModule -->
<g id="edge32" class="edge">
<title>VediprodottoComponent&#45;&gt;AppModule</title>
<path fill="none" stroke="black" d="M434,-122.16C434,-144.35 434,-179 434,-179 434,-179 2550.15,-179 2550.15,-179"/>
<polygon fill="black" stroke="black" points="2550.15,-182.5 2560.15,-179 2550.15,-175.5 2550.15,-182.5"/>
</g>
<!-- VisualizzatuttiComponent -->
<g id="node33" class="node">
<title>VisualizzatuttiComponent</title>
<polygon fill="#ffffb3" stroke="black" points="338.48,-122 175.52,-122 175.52,-86 338.48,-86 338.48,-122"/>
<text text-anchor="middle" x="257" y="-99.8" font-family="Times,serif" font-size="14.00">VisualizzatuttiComponent</text>
</g>
<!-- VisualizzatuttiComponent&#45;&gt;AppModule -->
<g id="edge33" class="edge">
<title>VisualizzatuttiComponent&#45;&gt;AppModule</title>
<path fill="none" stroke="black" d="M257,-122.25C257,-145.02 257,-181 257,-181 257,-181 2550.3,-181 2550.3,-181"/>
<polygon fill="black" stroke="black" points="2550.3,-184.5 2560.3,-181 2550.3,-177.5 2550.3,-184.5"/>
</g>
<!-- AppComponent  -->
<g id="node36" class="node">
<title>AppComponent </title>
<polygon fill="#80b1d3" stroke="black" points="2656.44,-252 2547.56,-252 2547.56,-216 2656.44,-216 2656.44,-252"/>
<text text-anchor="middle" x="2602" y="-229.8" font-family="Times,serif" font-size="14.00">AppComponent </text>
</g>
<!-- AppModule&#45;&gt;AppComponent  -->
<g id="edge36" class="edge">
<title>AppModule&#45;&gt;AppComponent </title>
<path fill="none" stroke="black" stroke-dasharray="1,5" d="M2602,-187.11C2602,-187.11 2602,-205.99 2602,-205.99"/>
<polygon fill="black" stroke="black" points="2598.5,-205.99 2602,-215.99 2605.5,-205.99 2598.5,-205.99"/>
</g>
<!-- AppRoutingModule -->
<g id="node35" class="node">
<title>AppRoutingModule</title>
<polygon fill="#8dd3c7" stroke="black" points="152.27,-122 149.27,-126 128.27,-126 125.27,-122 23.73,-122 23.73,-86 152.27,-86 152.27,-122"/>
<text text-anchor="middle" x="88" y="-99.8" font-family="Times,serif" font-size="14.00">AppRoutingModule</text>
</g>
<!-- AppRoutingModule&#45;&gt;AppModule -->
<g id="edge34" class="edge">
<title>AppRoutingModule&#45;&gt;AppModule</title>
<path fill="none" stroke="black" d="M109.46,-122.32C109.46,-145.66 109.46,-183 109.46,-183 109.46,-183 2550.3,-183 2550.3,-183"/>
<polygon fill="black" stroke="black" points="2550.3,-186.5 2560.3,-183 2550.3,-179.5 2550.3,-186.5"/>
</g>
<!-- AppRoutingModule&#45;&gt;AppModule -->
<g id="edge35" class="edge">
<title>AppRoutingModule&#45;&gt;AppModule</title>
<path fill="none" stroke="black" d="M66.54,-122.38C66.54,-146.28 66.54,-185 66.54,-185 66.54,-185 2550.11,-185 2550.11,-185"/>
<polygon fill="black" stroke="black" points="2550.11,-188.5 2560.11,-185 2550.11,-181.5 2550.11,-188.5"/>
</g>
</g>
</svg>
